<svg xmlns="http://www.w3.org/2000/svg" version="1.1" xmlns:xlink="http://www.w3.org/1999/xlink" xmlns:svgjs="http://svgjs.dev/svgjs" width="100%" height="100%" viewBox="0 0 200 40"><rect width="200" height="40" x="0" y="0" fill="#32b55cd4"/><g><circle r="166.66666666666666" cx="345.19559733072913" cy="367.417778315929" fill="#0" transform="matrix(0.7001668280902326,0,0,0.7001668280902326,0,42.74626490806034)"/><path d="M331.24806661005164 440.42116742051974L317.32907064359165 402.3150637090638L256.1482379631477 402.3150637090638L242.42889972571487 440.42116742051974L222.54869442116035 440.42116742051974L278.3102458851547 294.4143224362809L295.16706272158467 294.4143224362809L351.01418178373353 440.42116742051974L331.24806661005164 440.42116742051974ZM286.7243930370106 318.17359219050456L261.96683463765146 386.4850580504874L311.59604156724237 386.4850580504874L286.7243930370106 318.17359219050456ZM413.67818616552154 375.3327477576885L413.67818616552154 375.3327477576885Q388.9206277661624 368.23063711086775 377.62570480977274 357.8484352014591Q366.35930438610126 347.46623329205045 366.35930438610126 332.2352008205553L366.35930438610126 332.2352008205553Q366.35930438610126 314.97906852607116 380.13568768897045 303.6841455696815Q393.9405935245578 292.41774514600996 415.98851131569216 292.41774514600996L415.98851131569216 292.41774514600996Q431.0198860581602 292.41774514600996 442.8282146034766 298.23634182051376Q454.60802061607495 304.0549384950175 461.0541130103781 314.26600520811724Q467.5287279373995 324.50559445393515 467.5287279373995 336.6276708591513L467.5287279373995 336.6276708591513L448.1904507544899 336.6276708591513Q448.1904507544899 323.39321567792706 439.7477810699158 315.8347445076158Q431.33363391805995 308.24775080458636 415.98851131569216 308.24775080458636L415.98851131569216 308.24775080458636Q401.75576748933247 308.24775080458636 393.7694583282489 314.52270800258066Q385.81167169988345 320.7976652005749 385.81167169988345 331.92145296065564L385.81167169988345 331.92145296065564Q385.81167169988345 340.8490057014383 393.3701428701947 347.00987276855994Q400.95713657322415 353.1707398356816 419.15451244740746 358.3047957249496Q437.35188832159076 363.4103290814994 447.6200001001268 369.5711961486211Q457.91663441138104 375.73206321574276 462.87955510434006 383.97507517128975Q467.8424757972992 392.18956459411856 467.8424757972992 403.3133523541992L467.8424757972992 403.3133523541992Q467.8424757972992 421.0543677048921 454.00904742899365 431.7503174742004Q440.14709652796995 442.41774471079066 416.9867999608276 442.41774471079066L416.9867999608276 442.41774471079066Q401.95542521835955 442.41774471079066 388.9206277661624 436.65619310172326Q375.88583031396524 430.89464149265575 368.8122421998627 420.85470997586503Q361.73865408576006 410.8433009917924 361.73865408576006 398.0937288667767L361.73865408576006 398.0937288667767L381.10545380138774 398.0937288667767Q381.10545380138774 411.32818404800094 390.860159990997 419.00074534918485Q400.6433887133244 426.6733066503688 416.9867999608276 426.6733066503688L416.9867999608276 426.6733066503688Q432.24635496504084 426.6733066503688 440.34675425699714 420.45539451781076Q448.47567608167145 414.23748238525286 448.47567608167145 403.5130100832263Q448.47567608167145 392.7885377811998 440.9457274440784 386.9128960412597Q433.44430133920343 381.0657768340378 413.67818616552154 375.3327477576885Z " fill="#32b55cd4" transform="matrix(0.7001668280902326,0,0,0.7001668280902326,0,42.74626490806034)"/><path d="M684.7563434924625 440.42116742051974L665.3039761786804 440.42116742051974Q663.6781918137456 437.19812122336816 662.67990316861 428.98363180053934L662.67990316861 428.98363180053934Q649.7591958472856 442.41774471079066 631.7900002348474 442.41774471079066L631.7900002348474 442.41774471079066Q615.7603368472439 442.41774471079066 605.492225068708 433.3475793064172Q595.1955907574538 424.2774139020437 595.1955907574538 410.32989540286553L595.1955907574538 410.32989540286553Q595.1955907574538 393.38751096828105 608.0877755460601 384.0035977040078Q620.9799603346664 374.64820697245284 644.3399146308359 374.64820697245284L644.3399146308359 374.64820697245284L662.3946778414286 374.64820697245284L662.3946778414286 366.11996968972426Q662.3946778414286 356.3937860328332 656.5760811669247 350.6322344237657Q650.757484492421 344.8706828146983 639.4340390033133 344.8706828146983L639.4340390033133 344.8706828146983Q629.508197617395 344.8706828146983 622.7768798959103 349.86212604037553Q616.0455621744255 354.88209179877094 616.0455621744255 362.01272497830985L616.0455621744255 362.01272497830985L597.4203483094699 362.01272497830985Q597.4203483094699 353.8838031536354 603.1818999185373 346.3253319833242Q608.9434515276048 338.7383382802948 618.8122478480866 334.3173457089806Q628.6810441685685 329.9248756703847 640.5178952466031 329.9248756703847L640.5178952466031 329.9248756703847Q659.2857217751496 329.9248756703847 669.8961039463035 339.2802664019398Q680.5350086501755 348.66417966621293 680.9343241082297 365.12168104458874L680.9343241082297 365.12168104458874L680.9343241082297 415.06463583407935Q680.9343241082297 429.98192044567486 684.7563434924625 438.8239055883031L684.7563434924625 438.8239055883031L684.7563434924625 440.42116742051974ZM634.4996408430723 426.2739911923146L634.4996408430723 426.2739911923146Q643.2275358548279 426.2739911923146 651.0427098196026 421.7674310228459Q658.8864063170954 417.26087085337736 662.3946778414286 410.04467007568394L662.3946778414286 410.04467007568394L662.3946778414286 387.7685720228044L647.8481861551691 387.7685720228044Q613.7637595569731 387.7685720228044 613.7637595569731 407.73434492551337L613.7637595569731 407.73434492551337Q613.7637595569731 416.46223993726903 619.5823562314769 421.36811556479176Q625.3724303732624 426.2739911923146 634.4996408430723 426.2739911923146ZM710.0273074807485 331.92145296065564L727.5686651024143 331.92145296065564L728.1676382894955 345.55522359993404Q740.6034625546115 329.9248756703847 760.6548030554748 329.9248756703847L760.6548030554748 329.9248756703847Q795.0529775135706 329.9248756703847 795.338202840752 368.7155201670764L795.338202840752 368.7155201670764L795.338202840752 440.42116742051974L776.7985565739509 440.42116742051974L776.7985565739509 368.6299525689219Q776.6844664430782 356.87866908904175 771.4363204229376 351.28825267628326Q766.159651870079 345.6693137308066 755.0358641099981 345.6693137308066L755.0358641099981 345.6693137308066Q746.022743771061 345.6693137308066 739.2058584514218 350.46109922745677Q732.3889731317824 355.2814072568251 728.5669537475496 363.09658122159976L728.5669537475496 363.09658122159976L728.5669537475496 440.42116742051974L710.0273074807485 440.42116742051974L710.0273074807485 331.92145296065564ZM843.4842380689988 331.92145296065564L843.4842380689988 440.42116742051974L824.9445918021977 440.42116742051974L824.9445918021977 331.92145296065564L843.4842380689988 331.92145296065564ZM823.4328975681356 303.1422174480365L823.4328975681356 303.1422174480365Q823.4328975681356 298.6356572785679 826.1710607090783 295.5267012122889Q828.9377463827395 292.41774514600996 834.357027599189 292.41774514600996Q839.7763088156387 292.41774514600996 842.571517022018 295.5267012122889Q845.3952477611153 298.6356572785679 845.3952477611153 303.1422174480365Q845.3952477611153 307.6487776175051 842.571517022018 310.67216608562956Q839.7763088156387 313.667032021036 834.357027599189 313.667032021036Q828.9377463827395 313.667032021036 826.1710607090783 310.67216608562956Q823.4328975681356 307.6487776175051 823.4328975681356 303.1422174480365ZM879.7934222192112 305.6522003272342L898.3330684860123 305.6522003272342L898.3330684860123 331.92145296065564L918.5840667159027 331.92145296065564L918.5840667159027 346.26828691788785L898.3330684860123 346.26828691788785L898.3330684860123 413.5529416000171Q898.3330684860123 420.0560790597566 901.0427090942371 423.3361703223445Q903.752349702462 426.58773905221426 910.2554871622015 426.58773905221426L910.2554871622015 426.58773905221426Q913.4785333593529 426.58773905221426 919.0974723048296 425.3897926780518L919.0974723048296 425.3897926780518L919.0974723048296 440.42116742051974Q911.7671813962636 442.41774471079066 904.8362059457518 442.41774471079066L904.8362059457518 442.41774471079066Q892.4289042133541 442.41774471079066 886.0969019499234 434.91631860591576Q879.7934222192112 427.3863699683226 879.7934222192112 413.5529416000171L879.7934222192112 413.5529416000171L879.7934222192112 346.26828691788785L860.0273070455291 346.26828691788785L860.0273070455291 331.92145296065564L879.7934222192112 331.92145296065564L879.7934222192112 305.6522003272342ZM1026.6844657177128 440.42116742051974L1007.2320984039306 440.42116742051974Q1005.6348365717138 437.19812122336816 1004.6365479265785 428.98363180053934L1004.6365479265785 428.98363180053934Q991.6873180725358 442.41774471079066 973.7466449928158 442.41774471079066L973.7466449928158 442.41774471079066Q957.6884590724942 442.41774471079066 947.4203472939582 433.3475793064172Q937.1237129827039 424.2774139020437 937.1237129827039 410.32989540286553L937.1237129827039 410.32989540286553Q937.1237129827039 393.38751096828105 950.0158977713104 384.0035977040078Q962.9080825599167 374.64820697245284 986.2680368560862 374.64820697245284L986.2680368560862 374.64820697245284L1004.3228000666788 374.64820697245284L1004.3228000666788 366.11996968972426Q1004.3228000666788 356.3937860328332 998.504203392175 350.6322344237657Q992.6856067176711 344.8706828146983 981.3621612285635 344.8706828146983L981.3621612285635 344.8706828146983Q971.4363198426454 344.8706828146983 964.7050021211605 349.86212604037553Q958.0022069323938 354.88209179877094 958.0022069323938 362.01272497830985L958.0022069323938 362.01272497830985L939.34847053472 362.01272497830985Q939.34847053472 353.8838031536354 945.1100221437875 346.3253319833242Q950.871573752855 338.7383382802948 960.7403700733369 334.3173457089806Q970.6376889265368 329.9248756703847 982.4745400045715 329.9248756703847L982.4745400045715 329.9248756703847Q1001.2138440003998 329.9248756703847 1011.8527487042718 339.2802664019398Q1022.4631308754258 348.66417966621293 1022.86244633348 365.12168104458874L1022.86244633348 365.12168104458874L1022.86244633348 415.06463583407935Q1022.86244633348 429.98192044567486 1026.6844657177128 438.8239055883031L1026.6844657177128 438.8239055883031L1026.6844657177128 440.42116742051974ZM976.4562856010407 426.2739911923146L976.4562856010407 426.2739911923146Q985.1556580800782 426.2739911923146 992.999354577571 421.7674310228459Q1000.8145285423457 417.26087085337736 1004.3228000666788 410.04467007568394L1004.3228000666788 410.04467007568394L1004.3228000666788 387.7685720228044L989.7763083804193 387.7685720228044Q955.6918817822234 387.7685720228044 955.6918817822234 407.73434492551337L955.6918817822234 407.73434492551337Q955.6918817822234 416.46223993726903 961.510478456727 421.36811556479176Q967.3290751312309 426.2739911923146 976.4562856010407 426.2739911923146ZM1052.354745164053 430.69498376362867L1052.354745164053 430.69498376362867Q1052.354745164053 425.87467573426034 1055.2069984358686 422.68015206982693Q1058.059251707684 419.45710587267536 1063.7922807840334 419.45710587267536Q1069.4967873276644 419.45710587267536 1072.4631307303528 422.68015206982693Q1075.429474133041 425.87467573426034 1075.429474133041 430.69498376362867L1075.429474133041 430.69498376362867Q1075.429474133041 435.3156340639699 1072.4631307303528 438.42459013024893Q1069.4967873276644 441.5335461965278 1063.7922807840334 441.5335461965278Q1058.059251707684 441.5335461965278 1055.2069984358686 438.42459013024893Q1052.354745164053 435.3156340639699 1052.354745164053 430.69498376362867ZM1126.1425373059217 331.92145296065564L1126.1425373059217 440.42116742051974L1107.6028910391205 440.42116742051974L1107.6028910391205 331.92145296065564L1126.1425373059217 331.92145296065564ZM1106.0911968050582 303.1422174480365L1106.0911968050582 303.1422174480365Q1106.0911968050582 298.6356572785679 1108.8578824787191 295.5267012122889Q1111.6245681523803 292.41774514600996 1117.04384936883 292.41774514600996Q1122.4346080525613 292.41774514600996 1125.2583387916588 295.5267012122889Q1128.053546998038 298.6356572785679 1128.053546998038 303.1422174480365Q1128.053546998038 307.6487776175051 1125.2583387916588 310.67216608562956Q1122.4346080525613 313.667032021036 1117.04384936883 313.667032021036Q1111.6245681523803 313.667032021036 1108.8578824787191 310.67216608562956Q1106.0911968050582 307.6487776175051 1106.0911968050582 303.1422174480365ZM1150.9286182379988 386.4850580504874L1150.9286182379988 385.17302154545223Q1150.9286182379988 369.22892575600326 1157.2035754359931 356.4793536309876Q1163.4500101012693 343.7583040386902 1174.6308429267863 336.8273285881784Q1185.8116757523032 329.9248756703847 1200.1585097095356 329.9248756703847L1200.1585097095356 329.9248756703847Q1222.3205176315425 329.9248756703847 1236.0113333362574 345.26999827275245Q1249.702149040972 360.61512087512017 1249.702149040972 386.08574259243323L1249.702149040972 386.08574259243323L1249.702149040972 387.36925656475023Q1249.702149040972 403.2277847560448 1243.6268495720049 415.80622168475145Q1237.5515501030377 428.3846586134581 1226.2851496793662 435.40120166212444Q1214.9902267229768 442.41774471079066 1200.3581674385625 442.41774471079066L1200.3581674385625 442.41774471079066Q1178.3102496474285 442.41774471079066 1164.6194339427136 427.07262210842293Q1150.9286182379988 411.75602203877327 1150.9286182379988 386.4850580504874L1150.9286182379988 386.4850580504874ZM1169.5823546356728 387.36925656475023L1169.5823546356728 387.36925656475023Q1169.5823546356728 405.4240197753428 1177.9394567220922 416.34814980639635Q1186.32508134123 427.27227983745 1200.3581674385625 427.27227983745L1200.3581674385625 427.27227983745Q1214.505343666768 427.27227983745 1222.8339232204694 416.2055371428056Q1231.1339802414527 405.11027191544304 1231.1339802414527 385.17302154545223L1231.1339802414527 385.17302154545223Q1231.1339802414527 367.31791606388674 1222.6627880241604 356.25117336924234Q1214.1915958068682 345.15590814187976 1200.1585097095356 345.15590814187976L1200.1585097095356 345.15590814187976Q1186.4106489393846 345.15590814187976 1177.9965017875286 356.0800381729334Q1169.5823546356728 367.03269073670526 1169.5823546356728 387.36925656475023Z " fill="#0" transform="matrix(0.7001668280902326,0,0,0.7001668280902326,0,42.74626490806034)"/></g></svg>