<svg xmlns="http://www.w3.org/2000/svg" version="1.1" xmlns:xlink="http://www.w3.org/1999/xlink" xmlns:svgjs="http://svgjs.dev/svgjs" width="100%" height="100%" viewBox="0 0 1000 600"><rect width="1000" height="600" x="0" y="0" fill="#ffebcd"/><g><circle r="166.66666666666666" cx="317.078867594401" cy="339.30107392606635" fill="#b9d9eb" transform="matrix(0.8310496600866217,0,0,0.8310496600866217,0,18.023959495676394)"/><path d="M226.9556344854371 412.90074403116313L226.9556344854371 412.90074403116313Q225.33128799982657 412.90074403116313 223.5108996969872 412.2005946839172Q221.69051139414782 411.5004453366713 220.48625451688486 410.184164563849Q219.28199763962186 408.86788379102666 219.28199763962186 407.2435373054161L219.28199763962186 407.2435373054161Q219.28199763962186 406.4593700365007 219.47803945685072 405.8432386109243L219.47803945685072 405.8432386109243L261.6270301610548 268.92203226351324Q262.43920340386006 266.51351850898726 264.65167534115716 265.39327955339377Q266.86414727845425 264.30104657169016 269.4967088240989 264.30104657169016L269.4967088240989 264.30104657169016Q272.3253121869724 264.30104657169016 274.621802045939 265.50530344895316Q276.9462978787954 266.7095603262161 277.5624293043718 268.92203226351324L277.5624293043718 268.92203226351324L319.48737221745716 405.8432386109243Q319.71142000857583 406.4593700365007 319.71142000857583 407.0474954881872L319.71142000857583 407.0474954881872Q319.71142000857583 408.67184197379777 318.47915715742306 409.9881227466201Q317.27490028016007 411.27639754555264 315.45451197732075 412.08857078835786Q313.6621296483712 412.90074403116313 311.645699528303 412.90074403116313L311.645699528303 412.90074403116313Q310.02135304269245 412.90074403116313 308.6210543482006 412.08857078835786Q307.1927496798189 411.27639754555264 306.80066604536125 409.4840152166031L306.80066604536125 409.4840152166031L297.30664089670665 378.4253901727743L241.65877077760132 378.4253901727743L232.38879342006538 409.4840152166031Q231.772661994489 411.27639754555264 230.37236329999718 412.08857078835786Q228.97206460550535 412.90074403116313 226.9556344854371 412.90074403116313ZM269.4967088240989 285.6696046496355L244.87945777493252 366.91493490405145L293.88991208214657 366.91493490405145L269.4967088240989 285.6696046496355ZM372.3346449475788 414.30104272565495L372.3346449475788 414.30104272565495Q359.4238909843641 414.30104272565495 350.1539136268283 410.38020638107787Q340.88393626929235 406.4593700365007 335.9268788907913 401.30627084077076Q330.9978274861801 396.15317164504086 330.9978274861801 392.54040101325194L330.9978274861801 392.54040101325194Q330.9978274861801 390.9160545276414 331.89401865065474 389.095666224802Q332.8182157890194 387.3032838958525 334.21851448351117 386.18304494025904Q335.61881317800305 385.06280598466554 337.0471178463847 385.06280598466554L337.0471178463847 385.06280598466554Q339.0635479664529 385.06280598466554 341.1639960081907 387.58334363475086Q343.29245002381833 390.1038812848361 346.82120273393764 393.43659217772665Q350.3499554440572 396.76930307061724 356.2032039870329 399.2898407207025Q362.05645253000887 401.8103783707878 371.5224717047736 401.8103783707878L371.5224717047736 401.8103783707878Q380.9884908795383 401.8103783707878 387.7659365608788 398.6737092951262Q394.5153762683294 395.5650461933543 398.04412897844884 389.40373193759024Q401.57288168856826 383.270423655716 401.57288168856826 373.97244032429023L401.57288168856826 373.97244032429023Q401.57288168856826 364.31037933229663 397.9321050828895 358.34510689376145Q394.31933445110053 352.4078404291161 388.35406201256535 348.68304590176785Q382.41679554792006 344.95825137441955 375.3592901276812 342.21366593321557Q368.3017847074424 339.4970864659014 361.1322553916442 336.78050699858727Q353.9907320497359 334.0639275312731 348.02545961120063 329.9190433955773Q342.08819314655534 325.80216523377135 338.36339861920703 319.02471955243084Q334.61059811796895 312.2752798449803 334.61059811796895 301.80104561018135L334.61059811796895 301.80104561018135Q334.61059811796895 290.7106799498061 338.64345835810536 283.65317452956725Q342.6763185982419 276.59566910932847 349.03367467123485 272.562808869192Q355.3910307442277 268.5299486290555 362.8406197989242 266.8215842217755Q370.3182148275106 265.0852138406056 377.3757202477494 265.0852138406056L377.3757202477494 265.0852138406056Q383.0049209996066 265.0852138406056 388.9701934381418 266.0094109789702Q394.9074599027872 266.905602143445 399.9485352029577 268.5299486290555Q404.98961050312823 270.1262891407762 408.12627957879 272.3667670519631Q411.23494268056186 274.5792389892602 411.23494268056186 277.4078423521337L411.23494268056186 277.4078423521337Q411.23494268056186 278.80814104662556 410.534793333316 280.51650545390555Q409.8346439860701 282.2248698611856 408.6303871088071 283.5411506340079Q407.4261302315441 284.85743140683024 405.4097001114759 284.85743140683024L405.4097001114759 284.85743140683024Q403.58931180863647 284.85743140683024 400.36862481130527 282.95302518232137Q397.1199318400842 281.0206129839226 391.57474900989655 279.1162067594137Q386.0295661797089 277.183794561015 377.17967843052054 277.183794561015L377.17967843052054 277.183794561015Q369.89812521916303 277.183794561015 363.1486855117124 279.31224857664256Q356.3992458042618 281.4407025922702 352.1703437468965 286.48177789244073Q347.9414416895312 291.52285319261136 347.9414416895312 300.5967887329184L347.9414416895312 300.5967887329184Q347.9414416895312 308.66250921319136 351.6662362168794 313.5915606178026Q355.3910307442277 318.52061202241384 361.328297208873 321.54525720251615Q367.2935696474083 324.5699023826185 374.3510750676471 327.09044003270384Q381.40858048788584 329.6109776827891 388.55010382979424 332.7476467584508Q395.7196331455924 335.8843158341125 401.6568996102377 340.6173254214949Q407.622172048773 345.35033500887727 411.23494268056186 353.0239718546925Q414.8757192862406 360.6696027266179 414.8757192862406 372.7681834470273L414.8757192862406 372.7681834470273Q414.8757192862406 387.0792361047338 409.4425603516123 396.2651955406002Q403.98139544309413 405.45115497646657 394.4033523727701 409.87609885106076Q384.82530930244593 414.30104272565495 372.3346449475788 414.30104272565495Z " fill="#ffebcd" transform="matrix(0.8310496600866217,0,0,0.8310496600866217,0,18.023959495676394)"/><path d="M574.4444488858231 412.9569643151667L574.4444488858231 412.9569643151667Q572.8853090795592 412.9569643151667 571.1379972277116 412.2849212952254Q569.3906853758641 411.61287827528406 568.234771381565 410.34943739779425Q567.0788573872658 409.0859965203045 567.0788573872658 407.5268567140405L567.0788573872658 407.5268567140405Q567.0788573872658 406.7741685317062 567.2670294328493 406.1827706741578L567.2670294328493 406.1827706741578L607.7240192333195 274.7580376944246Q608.5035891364515 272.4462097058263 610.6272450794662 271.37094087392006Q612.7509010224809 270.3225537628116 615.2777827774605 270.3225537628116L615.2777827774605 270.3225537628116Q617.9928365780236 270.3225537628116 620.1971376834313 271.4784677571107Q622.4283205096366 272.6343817514098 623.019718367185 274.7580376944246L623.019718367185 274.7580376944246L663.2616544012739 406.1827706741578Q663.4767081676551 406.7741685317062 663.4767081676551 407.33868466845695L663.4767081676551 407.33868466845695Q663.4767081676551 408.8978244747209 662.2939124525583 410.16126535221065Q661.1379984582592 411.3978245089028 659.3906866064117 412.1773944120348Q657.6702564753617 412.9569643151667 655.7347725779306 412.9569643151667L655.7347725779306 412.9569643151667Q654.1756327716666 412.9569643151667 652.8315467317839 412.1773944120348Q651.4605789711036 411.3978245089028 651.0842348799363 409.6773943778529L651.0842348799363 409.6773943778529L641.9713315295314 379.86556601325395L588.5573523045919 379.86556601325395L579.6595027205681 409.6773943778529Q579.0681048630197 411.3978245089028 577.7240188231369 412.1773944120348Q576.3799327832543 412.9569643151667 574.4444488858231 412.9569643151667ZM615.2777827774605 290.833306731422L591.648750196322 368.8171787654179L638.6917615922175 368.8171787654179L615.2777827774605 290.833306731422ZM685.5197192217319 412.9569643151667L685.5197192217319 412.9569643151667Q683.0197191875501 412.9569643151667 681.1648804525117 411.3978245089028Q679.3369234382714 409.86556642343646 679.3369234382714 407.9300825260053L679.3369234382714 407.9300825260053L679.3369234382714 326.0483609763495Q679.3369234382714 323.9247050333348 681.1648804525117 322.661264155845Q683.0197191875501 321.39782327835525 685.5197192217319 321.39782327835525L685.5197192217319 321.39782327835525Q688.0466009767114 321.39782327835525 689.793912828559 322.661264155845Q691.5412246804066 323.9247050333348 691.5412246804066 326.0483609763495L691.5412246804066 326.0483609763495L691.5412246804066 334.9462105603732Q694.6326225721367 329.35481263446104 701.218644167562 324.78492009885974Q707.7777840421899 320.24190928405613 717.4552035293456 320.24190928405613L717.4552035293456 320.24190928405613Q726.756278925334 320.24190928405613 734.605741398249 325.1881459108246Q742.4283221503666 330.1075008167953 747.0788598483608 338.2526622184847Q751.729397546355 346.37094189937636 751.729397546355 356.45158719849684L751.729397546355 356.45158719849684L751.729397546355 407.9300825260053Q751.729397546355 410.4300825601872 749.7939136489239 411.69352343767696Q747.8584297514927 412.9569643151667 745.3315479965132 412.9569643151667L745.3315479965132 412.9569643151667Q743.2078920534985 412.9569643151667 741.1648812728769 411.69352343767696Q739.1487522130527 410.4300825601872 739.1487522130527 407.9300825260053L739.1487522130527 407.9300825260053L739.1487522130527 356.45158719849684Q739.1487522130527 350.24190969423864 735.8423005549413 344.6236300475288Q732.5627306176274 339.0322321216167 727.132623016501 335.43008153473096Q721.7293971361727 331.8548126686429 715.1433755407471 331.8548126686429L715.1433755407471 331.8548126686429Q709.3369238484539 331.8548126686429 704.0143431305181 334.8655653979802Q698.6917624125825 337.8494364065199 695.3046655920781 343.2795440076461Q691.9175687715737 348.70965160877233 691.9175687715737 356.45158719849684L691.9175687715737 356.45158719849684L691.9175687715737 407.9300825260053Q691.9175687715737 409.86556642343646 690.089611757333 411.3978245089028Q688.2347730222949 412.9569643151667 685.5197192217319 412.9569643151667ZM781.3261721445728 294.30104871431945L781.3261721445728 294.30104871431945Q777.8584301616753 294.30104871431945 775.3315484066958 291.8816938425306Q772.831548372514 289.4623389707416 772.831548372514 286.1827690334278L772.831548372514 286.1827690334278Q772.831548372514 282.9031990961139 775.3315484066958 280.564489386718Q777.8584301616753 278.2526613981197 781.3261721445728 278.2526613981197L781.3261721445728 278.2526613981197Q784.820795848268 278.2526613981197 787.3476776032475 280.564489386718Q789.8476776374292 282.9031990961139 789.8476776374292 286.1827690334278L789.8476776374292 286.1827690334278Q789.8476776374292 289.4623389707416 787.3476776032475 291.8816938425306Q784.820795848268 294.30104871431945 781.3261721445728 294.30104871431945ZM781.1380000989892 412.9569643151667L781.1380000989892 412.9569643151667Q778.6380000648074 412.9569643151667 776.7831613297691 411.3978245089028Q774.9552043155287 409.86556642343646 774.9552043155287 407.9300825260053L774.9552043155287 407.9300825260053L774.9552043155287 326.0483609763495Q774.9552043155287 323.9247050333348 776.7831613297691 322.661264155845Q778.6380000648074 321.39782327835525 781.1380000989892 321.39782327835525L781.1380000989892 321.39782327835525Q783.8530538995523 321.39782327835525 785.6810109137929 322.661264155845Q787.535849648831 323.9247050333348 787.535849648831 326.0483609763495L787.535849648831 326.0483609763495L787.535849648831 407.9300825260053Q787.535849648831 409.86556642343646 785.6810109137929 411.3978245089028Q783.8530538995523 412.9569643151667 781.1380000989892 412.9569643151667ZM847.3476784236124 412.9569643151667L841.9175708224863 412.9569643151667Q827.0250975005855 412.9569643151667 819.0681081444799 406.1827706741578Q811.1380005091718 399.40857703314884 811.1380005091718 384.5161037112482L811.1380005091718 384.5161037112482L811.1380005091718 282.49997328414906Q811.1380005091718 280.3763173411344 813.1810112897934 279.1128764636446Q815.1971403496176 277.84943558615487 817.34767801343 277.84943558615487L817.34767801343 277.84943558615487Q819.8476780476118 277.84943558615487 821.7831619450429 279.1128764636446Q823.7186458424741 280.3763173411344 823.7186458424741 282.49997328414906L823.7186458424741 282.49997328414906L823.7186458424741 321.39782327835525L848.8799365090787 321.39782327835525Q850.8154204065098 321.39782327835525 851.971334400809 322.95696308461925Q853.1541301159058 324.5161028908832 853.1541301159058 326.63975883389793L853.1541301159058 326.63975883389793Q853.1541301159058 328.7634147769126 851.971334400809 330.3225545831766Q850.8154204065098 331.8548126686429 848.8799365090787 331.8548126686429L848.8799365090787 331.8548126686429L823.7186458424741 331.8548126686429L823.7186458424741 384.5161037112482Q823.7186458424741 393.9784694320226 827.7777856829199 397.7687920644919Q831.8638072441635 401.5322329761635 841.9175708224863 401.5322329761635L841.9175708224863 401.5322329761635L847.3476784236124 401.5322329761635Q850.0358505033779 401.5322329761635 851.4874634264512 403.1720179448205Q852.9390763495245 404.83868463427507 852.9390763495245 407.1505126228734L852.9390763495245 407.1505126228734Q852.9390763495245 409.46234061147163 851.4874634264512 411.20965246331923Q850.0358505033779 412.9569643151667 847.3476784236124 412.9569643151667L847.3476784236124 412.9569643151667ZM888.9605822183818 414.3010503550495L888.9605822183818 414.3010503550495Q878.1003670161293 414.3010503550495 870.3584314264048 408.01072768839833Q862.6164958366802 401.7204050217472 862.6164958366802 388.7634155972776L862.6164958366802 388.7634155972776Q862.6164958366802 378.1182541614064 868.3423023665806 372.41932935230363Q874.0412271756835 366.6935228224032 884.2025176371968 364.4623399961979Q894.3638080987104 362.2580388907902 907.7240233351446 362.2580388907902L907.7240233351446 362.2580388907902L917.5896148678838 362.2580388907902L917.5896148678838 357.60750119279595Q917.5896148678838 351.39782368853776 915.3584320416786 345.32255478826784Q913.1541309362709 339.2204041672003 908.2078943095024 335.24190948914736Q903.2616576827339 331.2902965318922 894.7670339106752 331.2902965318922L894.7670339106752 331.2902965318922Q888.3691843608334 331.2902965318922 884.3100445203876 332.6343825717749Q880.2509046799415 333.9784686116576 877.9121949705458 335.43008153473096Q875.6003669819473 336.8816944578043 874.0412271756835 336.8816944578043L874.0412271756835 336.8816944578043Q871.729399187085 336.8816944578043 870.3584314264048 334.569866469206Q869.014345386522 332.2580384806077 869.014345386522 330.1075008167953L869.014345386522 330.1075008167953Q869.014345386522 327.60750078261344 872.9928400645748 325.3763179564082Q876.9444530218301 323.14513513020285 883.0466036428978 321.6935222071295Q889.1487542639653 320.24190928405613 895.1433780018423 320.24190928405613L895.1433780018423 320.24190928405613Q908.1003674263119 320.24190928405613 915.7616578536434 325.5644900019917Q923.3960665601772 330.88707071992735 926.7831633806817 339.4085762127838Q930.1702602011861 347.9300817056403 930.1702602011861 357.60750119279595L930.1702602011861 357.60750119279595L930.1702602011861 407.9300825260053Q930.1702602011861 410.05373846902006 928.5304752325293 411.5053513920934Q926.8906902638722 412.9569643151667 923.9874644177256 412.9569643151667L923.9874644177256 412.9569643151667Q921.6487547083296 412.9569643151667 919.9283245772798 411.5053513920934Q918.1810127254322 410.05373846902006 918.1810127254322 407.9300825260053L918.1810127254322 407.9300825260053L918.1810127254322 399.40857703314884Q913.1541309362709 405.02685667985867 905.976711483297 409.6773943778529Q898.826173751121 414.3010503550495 888.9605822183818 414.3010503550495ZM892.0519801101119 403.65588891917827L892.0519801101119 403.65588891917827Q898.4229479391562 403.65588891917827 904.2293996314496 400.3763189818644Q910.035851323743 397.09674904455056 913.8261739562123 392.33868446336567Q917.5896148678838 387.60750160297846 917.5896148678838 383.33330799615146L917.5896148678838 383.33330799615146L917.5896148678838 370.96771642923034L909.4713351869922 370.96771642923034Q900.7616576485522 370.96771642923034 892.9121951756371 372.0161035403388Q885.0896144235195 373.091372372245 880.143377796751 376.55911435514247Q875.1971411699825 380.05373805883755 875.1971411699825 387.60750160297846L875.1971411699825 387.60750160297846Q875.1971411699825 395.91395332945376 880.143377796751 399.78492112431604Q885.0896144235195 403.65588891917827 892.0519801101119 403.65588891917827ZM951.8638088848935 301.4784681672932L951.8638088848935 301.4784681672932Q949.5250991754975 301.4784681672932 948.5573572267818 300.10750040661287Q947.5896152780664 298.7634143667301 947.5896152780664 297.01610251488256L947.5896152780664 297.01610251488256L945.6541313806352 268.575241910964Q945.6541313806352 266.6397580135329 947.6971421612569 265.48384401923374Q949.7132712210811 264.30104830413694 951.8638088848935 264.30104830413694L951.8638088848935 264.30104830413694Q953.9874648279082 264.30104830413694 956.0035938877323 265.48384401923374Q958.046604668354 266.6397580135329 958.046604668354 268.575241910964L958.046604668354 268.575241910964L956.1111207709229 297.01610251488256Q956.1111207709229 298.7634143667301 955.1433788222074 300.10750040661287Q954.1756368734917 301.4784681672932 951.8638088848935 301.4784681672932ZM1012.051981750842 414.3010503550495L1012.051981750842 414.3010503550495Q999.6595084631232 414.3010503550495 990.7616588790996 410.53760944337785Q981.8638092950758 406.7741685317062 977.1057447138911 401.82793190493777Q972.3745618535039 396.88169527816933 972.3745618535039 393.4139532952719L972.3745618535039 393.4139532952719Q972.3745618535039 391.85481348900794 973.2347769190288 390.10750163716034Q974.1218737053515 388.3870715061105 975.4659597452343 387.3118026742043Q976.810045785117 386.2365338422981 978.1810135457973 386.2365338422981L978.1810135457973 386.2365338422981Q980.1164974432285 386.2365338422981 982.1326265030524 388.65588871408704Q984.1756372836743 391.0752435858759 987.5627341041787 394.2741683607968Q990.9498309246832 397.4730931357177 996.568110571393 399.89244800750663Q1002.1863902181029 402.31180287929556 1011.27241184771 402.31180287929556L1011.27241184771 402.31180287929556Q1020.3584334773174 402.31180287929556 1026.8638099103496 399.3010501499582Q1033.3423046225844 396.3171791414186 1036.729401443089 390.4032005659346Q1040.1164982635933 384.5161037112482 1040.1164982635933 375.5913724064269L1040.1164982635933 375.5913724064269Q1040.1164982635933 366.3171787312361 1036.6218745598985 360.5913722013356Q1033.1541325770008 354.89244739223284 1027.4283260471007 351.3171785261448Q1021.7294012379976 347.74190966005676 1014.9552075969888 345.1075010218866Q1008.1810139559797 342.4999741045141 1001.2992934317803 339.8924471871416Q994.4444546283781 337.28492026976915 988.7186480984777 333.3064255917162Q983.0197232893751 329.35481263446104 979.4444544232871 322.8494362014286Q975.8423038364014 316.37094148919385 975.8423038364014 306.317177910871L975.8423038364014 306.317177910871Q975.8423038364014 295.67201647499985 979.7132716312636 288.89782283399086Q983.5842394261257 282.1236291929819 989.6863900471934 278.2526613981197Q995.7885406682609 274.3816936032574 1002.9390784004371 272.74190863460046Q1010.1164978534108 271.0752419451459 1016.8906914944199 271.0752419451459L1016.8906914944199 271.0752419451459Q1022.2939173747485 271.0752419451459 1028.0197239046488 271.9623387314685Q1033.7186487137515 272.8225537969935 1038.5573584573294 274.3816936032574Q1043.3960682009074 275.9139516887237 1046.4068209302445 278.0644893525361Q1049.3906919387841 280.1881452955508 1049.3906919387841 282.9031990961139L1049.3906919387841 282.9031990961139Q1049.3906919387841 284.24728513599666 1048.718648918843 285.88707010465356Q1048.0466058989014 287.5268550733105 1046.8906919046026 288.79029595080027Q1045.7347779103034 290.05373682829 1043.799294012872 290.05373682829L1043.799294012872 290.05373682829Q1042.0519821610246 290.05373682829 1038.960584269294 288.22577981404953Q1035.8423046567664 286.37094107901135 1030.5197239388308 284.54298406477085Q1025.1971432208952 282.68814532973266 1016.7025194488361 282.68814532973266L1016.7025194488361 282.68814532973266Q1009.713272041446 282.68814532973266 1003.2347773292114 284.7311561103544Q996.7562826169766 286.7741668909762 992.6971427765308 291.612876634554Q988.638002936085 296.4515863781318 988.638002936085 305.1612639165719L988.638002936085 305.1612639165719Q988.638002936085 312.9031995062964 992.2132718021729 317.6343823666836Q995.7885406682609 322.3655652270708 1001.4874654773638 325.2687910732175Q1007.2132720072642 328.17201691936424 1013.9874656482731 330.59137179115316Q1020.7616592892822 333.01072666294203 1027.6164980926842 336.0214793922794Q1034.4982186168836 339.0322321216167 1040.1971434259863 343.5752429364203Q1045.922949955887 348.1182537512239 1049.3906919387841 355.48384524978127Q1052.8853156424793 362.82255502754094 1052.8853156424793 374.43545841212773L1052.8853156424793 374.43545841212773Q1052.8853156424793 388.17201773972926 1047.6702618077343 396.98922216136Q1042.4283262521917 405.80642658299064 1033.2347777393938 410.05373846902006Q1024.041229226596 414.3010503550495 1012.051981750842 414.3010503550495Z " fill="#b9d9eb" transform="matrix(0.8310496600866217,0,0,0.8310496600866217,0,18.023959495676394)"/></g></svg>